<svg width="1969" height="240" viewBox="0 8 1969 240" fill="none" xmlns="http://www.w3.org/2000/svg">
  <rect x="8" y="8" width="240" height="240" rx="56" fill="var(--ui-primary, #6366f1)" /><path d="M38.5 175.6 c-1.5 -1 -1.9 -2.7 -1.9 -7.7 0 -5.5 0.4 -7.1 3.1 -11.4 1.8 -2.7 4.8 -6.3 6.8 -7.8 1.9 -1.5 3.5 -3.2 3.5 -3.8 0 -1.2 -5.8 -0.4 -11.5 1.6 -11.7 4.1 -16.3 3.7 -19 -1.5 -2.6 -5 -1.2 -8.4 4.2 -11 6.6 -3.1 10.4 -3.5 14.3 -1.5 2.1 1.1 4.1 1.4 5.9 0.9 1.4 -0.4 3.5 -0.9 4.6 -1.1 4.9 -0.9 12.3 -3.8 16 -6.3 13.7 -9.4 18.6 -11.7 34 -16 6.6 -1.9 11.9 -2.4 31.3 -3.1 l23.4 -0.8 8.4 -8.5 c5.7 -5.8 9.5 -8.8 11.9 -9.5 1.9 -0.5 5.8 -2.4 8.7 -4.1 4.5 -2.8 5.4 -3 7.5 -1.9 2 1.1 2.9 0.9 6.2 -0.9 6.4 -3.6 7.6 -2.5 4.4 4.3 l-1.7 3.5 3.3 4.1 c2.8 3.5 3.2 4.6 2.7 7.7 -0.3 2 0 5.1 0.6 6.8 1.8 5 -0.4 8.9 -6.3 11.6 -2.9 1.4 -4.5 2.6 -4 3.3 0.4 0.5 1.6 3.5 2.6 6.5 2.8 8.8 1.9 8.2 13.5 8.5 10.2 0.2 21.7 1.9 25.3 3.7 2 1 2.3 5.1 0.3 6.7 -0.7 0.6 -5.1 1.5 -9.7 2.1 -4.6 0.5 -12.7 1.9 -17.9 3 -8.5 1.8 -12.8 2 -42 1.9 -17.9 -0.1 -35 -0.3 -38 -0.5 -3 -0.1 -10.7 -0.6 -17.1 -1 -9.7 -0.6 -12.4 -0.4 -17 1.1 -7.2 2.3 -7.3 2.4 -5.5 4.4 2.2 2.5 3.1 7.8 1.6 9.6 -2.7 3.3 -9.3 1.2 -17.4 -5.5 -5.6 -4.7 -8.8 -5 -15.6 -1.7 -4.4 2.2 -4.5 2.3 -4.8 7.6 -0.2 3.7 -0.9 5.9 -2 6.8 -2.3 1.7 -10.3 1.6 -12.7 -0.1z" fill="#fff" /><path d="M315.74 203.87L315.74 203.87Q308.67 203.87 304.93 199.92Q301.18 195.97 301.18 188.90L301.18 188.90L301.18 68.46Q301.18 61.39 305.24 57.44Q309.30 53.49 316.37 53.49L316.37 53.49Q322.61 53.49 326.25 55.88Q329.89 58.27 333.01 64.10L333.01 64.10L377.52 145.42L422.03 64.10Q425.15 58.27 428.79 55.88Q432.43 53.49 438.46 53.49L438.46 53.49Q445.54 53.49 449.38 57.44Q453.23 61.39 453.23 68.46L453.23 68.46L453.23 188.90Q453.23 195.97 449.49 199.92Q445.74 203.87 438.67 203.87Q431.60 203.87 427.75 199.92Q423.90 195.97 423.90 188.90L423.90 188.90L423.90 112.77L389.79 173.92Q387.30 177.87 384.49 179.85Q381.68 181.82 377.10 181.82Q372.53 181.82 369.62 179.74Q366.70 177.66 364.42 173.92L364.42 173.92L330.30 113.39L330.30 188.90Q330.30 195.97 326.66 199.92Q323.02 203.87 315.74 203.87ZM529.36 204.29L529.36 204.29Q512.93 204.29 500.76 197.84Q488.59 191.39 481.94 179.33Q475.28 167.26 475.28 150.83L475.28 150.83Q475.28 138.56 479.02 128.78Q482.77 119.01 489.94 112.04Q497.12 105.07 507.10 101.43Q517.09 97.79 529.36 97.79L529.36 97.79Q545.79 97.79 557.96 104.24Q570.13 110.69 576.89 122.54Q583.65 134.40 583.65 150.83L583.65 150.83Q583.65 163.31 579.80 173.09Q575.95 182.86 568.88 189.94Q561.81 197.01 551.72 200.65Q541.63 204.29 529.36 204.29ZM529.36 180.78L529.36 180.78Q536.22 180.78 541.22 177.46Q546.21 174.13 549.12 167.58Q552.03 161.02 552.03 150.83L552.03 150.83Q552.03 135.65 545.79 128.47Q539.55 121.30 529.36 121.30L529.36 121.30Q522.70 121.30 517.61 124.42Q512.51 127.54 509.70 134.09Q506.90 140.64 506.90 150.83L506.90 150.83Q506.90 166.02 513.14 173.40Q519.38 180.78 529.36 180.78ZM643.55 203.87L643.55 203.87Q637.52 203.87 632.94 200.65Q628.37 197.42 625.66 190.98L625.66 190.98L594.26 118.59Q591.97 113.18 592.59 108.50Q593.22 103.82 597.06 101.02Q600.91 98.21 607.78 98.21L607.78 98.21Q613.39 98.21 616.93 100.81Q620.46 103.41 623.17 110.69L623.17 110.69L644.38 164.77L666.64 110.48Q669.55 103.41 673.09 100.81Q676.62 98.21 682.86 98.21L682.86 98.21Q688.27 98.21 691.50 101.02Q694.72 103.82 695.45 108.40Q696.18 112.98 693.68 118.38L693.68 118.38L661.65 190.98Q658.94 197.63 654.47 200.75Q650 203.87 643.55 203.87ZM727.17 203.87L727.17 203.87Q719.47 203.87 715.42 199.71Q711.36 195.55 711.36 187.86L711.36 187.86L711.36 69.50Q711.36 61.60 715.42 57.54Q719.47 53.49 727.17 53.49L727.17 53.49Q734.66 53.49 738.71 57.54Q742.77 61.60 742.77 69.50L742.77 69.50L742.77 142.10L743.18 142.10L773.34 108.61Q777.92 103.41 781.77 100.81Q785.62 98.21 792.06 98.21Q798.51 98.21 801.94 101.54Q805.38 104.86 805.48 109.54Q805.58 114.22 801.42 119.01L801.42 119.01L774.80 148.75L804.96 183.49Q808.91 188.27 808.39 193.06Q807.87 197.84 804.13 200.86Q800.38 203.87 794.56 203.87L794.56 203.87Q787.49 203.87 783.22 201.17Q778.96 198.46 774.59 192.85L774.59 192.85L743.18 157.90L742.77 157.90L742.77 187.86Q742.77 203.87 727.17 203.87Z" fill="currentColor" /><path d="M945.57 202L905.01 202Q896.90 202 892.53 197.63Q888.16 193.26 888.16 185.15L888.16 185.15L888.16 72.21Q888.16 64.10 892.53 59.73Q896.90 55.36 905.01 55.36L905.01 55.36L945.57 55.36Q983.22 55.36 1003.70 74.39Q1024.19 93.42 1024.19 128.58L1024.19 128.58Q1024.19 146.26 1018.89 159.88Q1013.58 173.50 1003.60 182.86Q993.62 192.22 979.06 197.11Q964.50 202 945.57 202L945.57 202ZM920.40 81.78L920.40 175.58L943.70 175.58Q955.55 175.58 964.29 172.67Q973.02 169.76 978.85 163.94Q984.67 158.11 987.58 149.27Q990.50 140.43 990.50 128.58L990.50 128.58Q990.50 104.86 978.74 93.32Q966.99 81.78 943.70 81.78L943.70 81.78L920.40 81.78ZM1080.98 204.29L1080.98 204.29Q1069.74 204.29 1060.80 199.92Q1051.86 195.55 1046.86 188.06Q1041.87 180.58 1041.87 171.22L1041.87 171.22Q1041.87 159.98 1047.70 153.43Q1053.52 146.88 1066.62 144.07Q1079.73 141.26 1101.36 141.26L1101.36 141.26L1108.85 141.26L1108.85 137.73Q1108.85 128.58 1104.69 124.73Q1100.53 120.88 1090.54 120.88L1090.54 120.88Q1084.93 120.88 1078.38 122.23Q1071.82 123.58 1063.92 126.70L1063.92 126.70Q1059.34 128.78 1055.81 127.64Q1052.27 126.50 1050.40 123.48Q1048.53 120.46 1048.53 116.82Q1048.53 113.18 1050.61 109.75Q1052.69 106.32 1057.47 104.66L1057.47 104.66Q1067.25 100.70 1075.88 99.25Q1084.51 97.79 1091.79 97.79L1091.79 97.79Q1107.81 97.79 1118.10 102.47Q1128.40 107.15 1133.60 116.82Q1138.80 126.50 1138.80 141.68L1138.80 141.68L1138.80 187.86Q1138.80 195.55 1135.06 199.71Q1131.31 203.87 1124.24 203.87Q1117.17 203.87 1113.32 199.71Q1109.47 195.55 1109.47 187.86L1109.47 187.86L1109.47 186.82Q1108.02 190.56 1105.73 193.47L1105.73 193.47Q1101.57 198.67 1095.33 201.48Q1089.09 204.29 1080.98 204.29ZM1108.85 161.65L1108.85 157.49L1101.57 157.49Q1090.96 157.49 1084.41 158.63Q1077.86 159.78 1075.05 162.48Q1072.24 165.18 1072.24 169.97L1072.24 169.97Q1072.24 175.79 1076.30 179.54Q1080.35 183.28 1088.05 183.28L1088.05 183.28Q1094.08 183.28 1098.76 180.47Q1103.44 177.66 1106.14 172.78Q1108.85 167.89 1108.85 161.65L1108.85 161.65ZM1201.41 204.29L1201.41 204.29Q1192.26 204.29 1182.58 202.62Q1172.91 200.96 1165.01 197.01L1165.01 197.01Q1160.85 194.93 1159.08 191.70Q1157.31 188.48 1157.52 185.15Q1157.73 181.82 1159.70 179.12Q1161.68 176.42 1164.90 175.48Q1168.13 174.54 1172.08 176.21L1172.08 176.21Q1180.61 179.74 1187.68 181.20Q1194.75 182.66 1201.62 182.66L1201.62 182.66Q1210.56 182.66 1214.62 179.85Q1218.67 177.04 1218.67 172.46L1218.67 172.46Q1218.67 168.30 1215.97 166.22Q1213.26 164.14 1208.06 163.31L1208.06 163.31L1186.22 159.36Q1173.33 157.07 1166.36 149.90Q1159.39 142.72 1159.39 131.49L1159.39 131.49Q1159.39 121.09 1165.22 113.50Q1171.04 105.90 1181.34 101.85Q1191.63 97.79 1204.74 97.79L1204.74 97.79Q1214.10 97.79 1222 99.46Q1229.90 101.12 1237.18 104.86L1237.18 104.86Q1240.93 106.74 1242.49 109.86Q1244.05 112.98 1243.53 116.30Q1243.01 119.63 1240.93 122.34Q1238.85 125.04 1235.62 125.87Q1232.40 126.70 1228.24 125.04L1228.24 125.04Q1221.58 121.92 1215.97 120.57Q1210.35 119.22 1205.15 119.22L1205.15 119.22Q1195.79 119.22 1191.63 122.23Q1187.47 125.25 1187.47 129.82L1187.47 129.82Q1187.47 133.36 1189.86 135.75Q1192.26 138.14 1197.25 138.98L1197.25 138.98L1219.09 142.93Q1232.61 145.22 1239.68 151.98Q1246.75 158.74 1246.75 170.38L1246.75 170.38Q1246.75 186.19 1234.38 195.24Q1222 204.29 1201.41 204.29ZM1280.45 203.87L1280.45 203.87Q1272.75 203.87 1268.70 199.71Q1264.64 195.55 1264.64 187.86L1264.64 187.86L1264.64 69.50Q1264.64 61.60 1268.70 57.54Q1272.75 53.49 1280.45 53.49L1280.45 53.49Q1287.94 53.49 1291.99 57.54Q1296.05 61.60 1296.05 69.50L1296.05 69.50L1296.05 113.81Q1300.42 107.36 1307.49 103.20L1307.49 103.20Q1316.85 97.79 1328.91 97.79L1328.91 97.79Q1341.18 97.79 1349.09 102.47Q1356.99 107.15 1360.94 116.62Q1364.90 126.08 1364.90 140.64L1364.90 140.64L1364.90 187.86Q1364.90 195.55 1360.84 199.71Q1356.78 203.87 1349.09 203.87L1349.09 203.87Q1341.60 203.87 1337.54 199.71Q1333.49 195.55 1333.49 187.86L1333.49 187.86L1333.49 142.10Q1333.49 131.49 1329.64 126.81Q1325.79 122.13 1317.89 122.13L1317.89 122.13Q1307.90 122.13 1301.98 128.37Q1296.05 134.61 1296.05 145.01L1296.05 145.01L1296.05 187.86Q1296.05 203.87 1280.45 203.87ZM1451.42 204.29L1451.42 204.29Q1439.15 204.29 1429.79 198.05L1429.79 198.05Q1422.93 193.68 1419.39 187.23L1419.39 187.23L1419.39 187.86Q1419.39 195.55 1415.44 199.71Q1411.49 203.87 1404 203.87Q1396.51 203.87 1392.46 199.71Q1388.40 195.55 1388.40 187.86L1388.40 187.86L1388.40 69.50Q1388.40 61.60 1392.46 57.54Q1396.51 53.49 1404.21 53.49L1404.21 53.49Q1411.70 53.49 1415.75 57.54Q1419.81 61.60 1419.81 69.50L1419.81 69.50L1419.81 113.60Q1423.34 107.78 1430 103.62L1430 103.62Q1439.36 97.79 1451.42 97.79L1451.42 97.79Q1464.94 97.79 1474.93 104.24Q1484.91 110.69 1490.53 122.54Q1496.14 134.40 1496.14 150.83Q1496.14 167.26 1490.53 179.33Q1484.91 191.39 1474.82 197.84Q1464.74 204.29 1451.42 204.29ZM1442.06 180.78L1442.06 180.78Q1448.72 180.78 1453.82 177.46Q1458.91 174.13 1461.72 167.58Q1464.53 161.02 1464.53 150.83L1464.53 150.83Q1464.53 135.65 1458.29 128.47Q1452.05 121.30 1442.06 121.30L1442.06 121.30Q1435.41 121.30 1430.31 124.42Q1425.22 127.54 1422.30 134.09Q1419.39 140.64 1419.39 150.83L1419.39 150.83Q1419.39 166.02 1425.63 173.40Q1431.87 180.78 1442.06 180.78ZM1564.37 204.29L1564.37 204.29Q1547.94 204.29 1535.77 197.84Q1523.60 191.39 1516.94 179.33Q1510.29 167.26 1510.29 150.83L1510.29 150.83Q1510.29 138.56 1514.03 128.78Q1517.78 119.01 1524.95 112.04Q1532.13 105.07 1542.11 101.43Q1552.10 97.79 1564.37 97.79L1564.37 97.79Q1580.80 97.79 1592.97 104.24Q1605.14 110.69 1611.90 122.54Q1618.66 134.40 1618.66 150.83L1618.66 150.83Q1618.66 163.31 1614.81 173.09Q1610.96 182.86 1603.89 189.94Q1596.82 197.01 1586.73 200.65Q1576.64 204.29 1564.37 204.29ZM1564.37 180.78L1564.37 180.78Q1571.23 180.78 1576.22 177.46Q1581.22 174.13 1584.13 167.58Q1587.04 161.02 1587.04 150.83L1587.04 150.83Q1587.04 135.65 1580.80 128.47Q1574.56 121.30 1564.37 121.30L1564.37 121.30Q1557.71 121.30 1552.62 124.42Q1547.52 127.54 1544.71 134.09Q1541.90 140.64 1541.90 150.83L1541.90 150.83Q1541.90 166.02 1548.14 173.40Q1554.38 180.78 1564.37 180.78ZM1672.32 204.29L1672.32 204.29Q1661.09 204.29 1652.14 199.92Q1643.20 195.55 1638.21 188.06Q1633.22 180.58 1633.22 171.22L1633.22 171.22Q1633.22 159.98 1639.04 153.43Q1644.86 146.88 1657.97 144.07Q1671.07 141.26 1692.70 141.26L1692.70 141.26L1700.19 141.26L1700.19 137.73Q1700.19 128.58 1696.03 124.73Q1691.87 120.88 1681.89 120.88L1681.89 120.88Q1676.27 120.88 1669.72 122.23Q1663.17 123.58 1655.26 126.70L1655.26 126.70Q1650.69 128.78 1647.15 127.64Q1643.62 126.50 1641.74 123.48Q1639.87 120.46 1639.87 116.82Q1639.87 113.18 1641.95 109.75Q1644.03 106.32 1648.82 104.66L1648.82 104.66Q1658.59 100.70 1667.22 99.25Q1675.86 97.79 1683.14 97.79L1683.14 97.79Q1699.15 97.79 1709.45 102.47Q1719.74 107.15 1724.94 116.82Q1730.14 126.50 1730.14 141.68L1730.14 141.68L1730.14 187.86Q1730.14 195.55 1726.40 199.71Q1722.66 203.87 1715.58 203.87Q1708.51 203.87 1704.66 199.71Q1700.82 195.55 1700.82 187.86L1700.82 187.86L1700.82 186.82Q1699.36 190.56 1697.07 193.47L1697.07 193.47Q1692.91 198.67 1686.67 201.48Q1680.43 204.29 1672.32 204.29ZM1700.19 161.65L1700.19 157.49L1692.91 157.49Q1682.30 157.49 1675.75 158.63Q1669.20 159.78 1666.39 162.48Q1663.58 165.18 1663.58 169.97L1663.58 169.97Q1663.58 175.79 1667.64 179.54Q1671.70 183.28 1679.39 183.28L1679.39 183.28Q1685.42 183.28 1690.10 180.47Q1694.78 177.66 1697.49 172.78Q1700.19 167.89 1700.19 161.65L1700.19 161.65ZM1769.87 203.87L1769.87 203.87Q1761.97 203.87 1757.81 199.71Q1753.65 195.55 1753.65 187.86L1753.65 187.86L1753.65 114.02Q1753.65 106.32 1757.70 102.26Q1761.76 98.21 1769.04 98.21L1769.04 98.21Q1776.53 98.21 1780.48 102.26Q1784.43 106.32 1784.43 114.02L1784.43 114.02L1784.43 117.76Q1787.34 110.27 1793.38 105.49L1793.38 105.49Q1801.90 98.62 1815.42 97.79L1815.42 97.79Q1820.62 97.38 1823.43 100.39Q1826.24 103.41 1826.45 110.27L1826.45 110.27Q1826.86 116.72 1823.85 120.46Q1820.83 124.21 1813.76 125.04L1813.76 125.04L1808.98 125.46Q1797.12 126.50 1791.40 132.32Q1785.68 138.14 1785.68 149.17L1785.68 149.17L1785.68 187.86Q1785.68 195.55 1781.62 199.71Q1777.57 203.87 1769.87 203.87ZM1877.20 204.29L1877.20 204.29Q1863.89 204.29 1853.80 197.84Q1843.71 191.39 1838.10 179.33Q1832.48 167.26 1832.48 150.83Q1832.48 134.40 1838.10 122.54Q1843.71 110.69 1853.80 104.24Q1863.89 97.79 1877.20 97.79L1877.20 97.79Q1889.26 97.79 1898.62 103.62L1898.62 103.62Q1905.28 107.78 1908.82 113.81L1908.82 113.81L1908.82 69.50Q1908.82 61.60 1912.77 57.54Q1916.72 53.49 1924.42 53.49L1924.42 53.49Q1931.90 53.49 1936.06 57.54Q1940.22 61.60 1940.22 69.50L1940.22 69.50L1940.22 187.86Q1940.22 195.55 1936.17 199.71Q1932.11 203.87 1924.62 203.87Q1917.14 203.87 1913.08 199.71Q1909.02 195.55 1909.02 187.86L1909.02 187.86L1909.02 187.44Q1905.70 193.89 1899.04 198.05L1899.04 198.05Q1889.47 204.29 1877.20 204.29ZM1886.56 180.78L1886.56 180.78Q1893.42 180.78 1898.42 177.46Q1903.41 174.13 1906.32 167.58Q1909.23 161.02 1909.23 150.83L1909.23 150.83Q1909.23 135.65 1902.99 128.47Q1896.75 121.30 1886.56 121.30L1886.56 121.30Q1879.90 121.30 1874.81 124.42Q1869.71 127.54 1866.90 134.09Q1864.10 140.64 1864.10 150.83L1864.10 150.83Q1864.10 166.02 1870.34 173.40Q1876.58 180.78 1886.56 180.78Z" fill="var(--ui-primary, #6366f1)" />
</svg>
